Coordinates
version=1
nRows=29
nColumns=22
inDegrees=yes

Units are S.I. units (second, meters, Newtons, ...)
If the header above contains a line with 'inDegrees', this indicates whether rotational values are in degrees (yes) or radians (no).

endheader
time	pelvis_tilt	pelvis_list	pelvis_rotation	pelvis_tx	pelvis_ty	pelvis_tz	hip_flexion_r	hip_adduction_r	hip_rotation_r	knee_angle_r	ankle_angle_r	subtalar_angle_r	hip_flexion_l	hip_adduction_l	hip_rotation_l	knee_angle_l	ankle_angle_l	subtalar_angle_l	lumbar_extension	lumbar_bending	lumbar_rotation
      0.01000000	    -26.08640610	     16.71483508	    -36.54507827	     -1.29184089	      0.84157778	     -0.70802497	     22.15765029	      4.82711223	     -1.14890602	    -43.07489519	     28.59452412	      6.26609583	     78.70113613	     -8.09225270	     -4.07479942	    -93.17958549	     21.30697019	      1.03228402	    -10.78274097	     -2.24833832	     17.80775053
      0.02000000	    -25.90559487	     16.39579537	    -36.33532853	     -1.26866583	      0.84535098	     -0.69216013	     19.77030810	      5.03347262	      0.11011279	    -41.94976698	     25.04105199	      7.29777040	     79.27818896	     -8.60705290	     -5.00273420	    -89.46625011	     21.23703293	      2.89614191	    -10.48838474	     -2.46944660	     17.54446195
      0.03000000	    -25.64644020	     16.02906291	    -36.13548962	     -1.24150093	      0.84954553	     -0.67382242	     17.30232298	      5.19594947	      1.39245639	    -41.14712194	     21.01457057	      8.26077204	     79.47703547	     -9.06958701	     -6.15599741	    -85.06286734	     20.98580531	      5.52058251	    -10.23198193	     -2.73575535	     17.23388359
      0.04000000	    -25.35176845	     15.63535933	    -36.00923616	     -1.21154779	      0.85379462	     -0.65379857	     15.07080820	      5.34059846	      2.60566343	    -40.98119464	     16.92707641	      9.06468936	     79.22989396	     -9.47338698	     -7.44916919	    -80.26244187	     20.44103051	      8.84182191	    -10.00543541	     -3.01497439	     16.95472091
      0.05000000	    -24.95617707	     15.17676315	    -35.93340497	     -1.17970476	      0.85794008	     -0.63289181	     13.21483806	      5.43159963	      3.52284006	    -41.69992548	     13.24183305	      9.62576864	     78.41151832	     -9.70313112	     -8.75840917	    -75.38696164	     19.77837725	     12.34222296	     -9.95000205	     -3.27983873	     16.65588896
      0.06000000	    -24.50381938	     14.66731897	    -35.93100652	     -1.14698254	      0.86168278	     -0.61169683	     11.97645180	      5.51065370	      4.11439143	    -43.52740916	     10.32309849	      9.89034424	     77.12587698	     -9.79081090	     -9.96887970	    -70.80348348	     19.01658254	     15.52559005	    -10.05812607	     -3.51050125	     16.39092621
      0.07000000	    -23.97108222	     14.13719495	    -35.96052284	     -1.11398280	      0.86484635	     -0.59072341	     11.46369178	      5.51667484	      4.30282903	    -46.54788657	      8.34920367	      9.77551639	     75.43404497	     -9.68799910	    -11.02465369	    -66.79728109	     18.35661055	     17.78619623	    -10.36380094	     -3.73358710	     16.09515130
      0.08000000	    -23.36154990	     13.65836097	    -35.98478025	     -1.08115374	      0.86723822	     -0.57032126	     11.76317590	      5.36880009	      4.10956157	    -50.71673019	      7.30083414	      9.21412212	     73.44669881	     -9.36734606	    -11.91624644	    -63.56654068	     17.96043847	     18.70273015	    -10.83368234	     -4.00697889	     15.73078841
      0.09000000	    -22.66476151	     13.28688464	    -35.97041614	     -1.04873312	      0.86872251	     -0.55064229	     12.85527161	      4.99152820	      3.62728782	    -55.83767015	      7.02170830	      8.18274963	     71.23944603	     -8.81191557	    -12.66810316	    -61.20812640	     18.00820545	     18.04917403	    -11.44377530	     -4.38182822	     15.19912562
      0.10000000	    -21.86391696	     13.07514795	    -35.90891567	     -1.01677758	      0.86926257	     -0.53173328	     14.66116985	      4.32599338	      3.02822439	    -61.61902011	      7.34074972	      6.74661275	     68.84284939	     -7.97625095	    -13.28150257	    -59.68264554	     18.63948710	     15.75141759	    -12.16536879	     -4.90691316	     14.47957269
      0.11000000	    -21.00808728	     13.03265721	    -35.73565315	     -0.98520010	      0.86876486	     -0.51361497	     17.11002664	      3.38034209	      2.40095627	    -67.74018309	      8.15675272	      5.02948368	     66.33813179	     -6.80047204	    -13.68134220	    -58.88474862	     19.92135566	     12.16446287	    -12.92551203	     -5.52613567	     13.46470417
      0.12000000	    -20.08116293	     13.14601071	    -35.52810186	     -0.95394188	      0.86735509	     -0.49604640	     20.08246814	      2.20970921	      1.95899720	    -73.90798600	      9.33259104	      3.14934630	     63.69699649	     -5.35259714	    -13.90234562	    -58.64228505	     21.90914529	      7.97069634	    -13.71717237	     -6.23933546	     12.21463219
      0.13000000	    -19.16752494	     13.35461410	    -35.23717326	     -0.92286831	      0.86508248	     -0.47894950	     23.52640098	      0.93198582	      1.70938432	    -79.85131086	     10.76836714	      1.11785786	     60.99196083	     -3.65308074	    -13.84170468	    -58.77127029	     24.46207639	      3.81978312	    -14.47294166	     -6.91015239	     10.69988137
      0.14000000	    -18.32206357	     13.58919332	    -34.87763727	     -0.89189552	      0.86210340	     -0.46214156	     27.38361022	     -0.32872183	      1.66436762	    -85.34725192	     12.37796866	     -1.01965260	     58.25087281	     -1.82374312	    -13.49957659	    -59.11059391	     27.39415686	      0.21923046	    -15.15155966	     -7.43509855	      8.97737332
      0.15000000	    -17.62592567	     13.77620654	    -34.40670624	     -0.86093805	      0.85860409	     -0.44552048	     31.61848874	     -1.46779845	      1.72502845	    -90.19971983	     14.04119343	     -3.18353355	     55.52161904	      0.02742942	    -12.84277020	    -59.52813884	     30.46388805	     -2.59380114	    -15.69833282	     -7.69153010	      7.07506545
      0.16000000	    -17.12488704	     13.85467923	    -33.79308529	     -0.82989616	      0.85484241	     -0.42898491	     36.16274365	     -2.44205100	      1.76748926	    -94.24264753	     15.66862415	     -5.26054418	     52.80770745	      1.78290087	    -11.89544249	    -59.92945601	     33.45254832	     -4.59505050	    -16.08157168	     -7.59759882	      5.03547643
      0.17000000	    -16.83354151	     13.81732946	    -33.03592379	     -0.79867878	      0.85109311	     -0.41239470	     40.94454386	     -3.27723454	      1.70261082	    -97.34861117	     17.19908857	     -7.10178526	     50.08567211	      3.34788280	    -10.73659465	    -60.21862863	     36.18738059	     -5.83470924	    -16.26045266	     -7.16178063	      2.92236898
      0.18000000	    -16.72490498	     13.64110791	    -32.13289023	     -0.76711400	      0.84767580	     -0.39565471	     45.82071006	     -4.04950135	      1.42364887	    -99.41404857	     18.50834413	     -8.62933074	     47.28151046	      4.65881732	     -9.42326157	    -60.31525295	     38.55122904	     -6.44040518	    -16.24792448	     -6.39034887	      0.76625704
      0.19000000	    -16.68682013	     13.32221213	    -31.16707255	     -0.73503159	      0.84500544	     -0.37850426	     50.55336131	     -4.81714898	      0.92815491	   -100.36217484	     19.68287131	     -9.88539302	     44.23005748	      5.66725193	     -8.05765763	    -60.10345056	     40.45060216	     -6.52885765	    -16.12226455	     -5.38797875	     -1.35569159
      0.20000000	    -16.70687456	     12.92873145	    -30.20976616	     -0.70235094	      0.84319492	     -0.36080970	     55.07261776	     -5.61831276	      0.24409974	   -100.19632511	     20.51696010	    -10.63606006	     40.92877926	      6.36397013	     -6.71063195	    -59.50241576	     41.82233933	     -6.13313529	    -15.82563077	     -4.26261088	     -3.36911653
      0.21000000	    -16.66964208	     12.47354826	    -29.38819521	     -0.66897855	      0.84247963	     -0.34233593	     59.15434741	     -6.42106228	     -0.57939110	    -98.92996231	     21.07693970	    -11.00883015	     37.26460063	      6.74428717	     -5.47480909	    -58.45580730	     42.57947627	     -5.28487460	    -15.45623681	     -3.13373201	     -5.18586358
      0.22000000	    -16.54855831	     11.98747580	    -28.78691448	     -0.63491680	      0.84287400	     -0.32297492	     62.69268058	     -7.14887926	     -1.51823947	    -96.62192508	     21.28733179	    -10.83340068	     33.24989299	      6.83572539	     -4.38516206	    -56.95105722	     42.65026368	     -4.04117962	    -15.03250101	     -2.07119552	     -6.74135528
      0.23000000	    -16.34041337	     11.51588218	    -28.46571375	     -0.60022186	      0.84428496	     -0.30266440	     65.63002309	     -7.72252716	     -2.55308156	    -93.35889737	     21.03238783	    -10.03835144	     28.94907963	      6.72500950	     -3.41964766	    -55.01513013	     41.92364949	     -2.41295444	    -14.55351082	     -1.14779868	     -7.94509474
      0.24000000	    -16.07702241	     11.07453465	    -28.42063869	     -0.56498974	      0.84649898	     -0.28144965	     67.93691235	     -8.08077653	     -3.70845549	    -89.25318061	     20.28710504	     -8.51291233	     24.48106961	      6.49448584	     -2.50608527	    -52.75189808	     40.36439174	     -0.46190091	    -14.01320213	     -0.36063437	     -8.82824665
      0.25000000	    -15.74663523	     10.64159526	    -28.65744752	     -0.52932338	      0.84939977	     -0.25933655	     69.54124836	     -8.15776686	     -4.99666498	    -84.42861863	     19.03206004	     -6.18973418	     19.91880266	      6.21213062	     -1.56457522	    -50.30014287	     37.89038125	      1.70918603	    -13.47728703	      0.29947492	     -9.36075715
      0.26000000	    -15.38532159	     10.24223983	    -29.10554855	     -0.49335331	      0.85268181	     -0.23645919	     70.48729317	     -7.97129034	     -6.40280496	    -79.06557925	     17.29178245	     -3.05369345	     15.43591323	      5.97733248	     -0.46738056	    -47.86052610	     34.54046553	      3.98500403	    -12.93266254	      0.83534246	     -9.60515237
      0.27000000	    -15.00338540	      9.87370342	    -29.70339505	     -0.45721078	      0.85608989	     -0.21291794	     70.81362254	     -7.53445328	     -7.89285803	    -73.37615314	     15.11777673	      0.72226796	     11.18739567	      5.83030707	      0.84970652	    -45.67867392	     30.45973436	      6.20969340	    -12.40203764	      1.25844233	     -9.61765458
      0.28000000	    -14.60973534	      9.54553453	    -30.38598092	     -0.42106916	      0.85933199	     -0.18882554	     70.61110064	     -6.87815959	     -9.39415533	    -67.62244077	     12.62194469	      4.79940035	      7.35995820	      5.78703041	      2.36654167	    -44.04847150	     25.91452949	      8.25262250	    -11.89841217	      1.56511277	     -9.46851669
      0.29000000	    -14.20646550	      9.28071749	    -31.11380747	     -0.38511656	      0.86214272	     -0.16430848	     70.00801491	     -6.03451640	    -10.79515715	    -62.09819971	      9.97679033	      8.71699299	      4.14379377	      5.85332891	      3.93214223	    -43.25883445	     21.27865961	     10.02408379	    -11.43048521	      1.73034736	     -9.21258791
